# xmcd CD database file
#
# Track frame offsets:
#	150
#	14887
#	34355
#	52414
#	71092
#	88095
#	103647
#	121502
#	140137
#	155662
#	171000
#
# Disc length: 2606 seconds
#
# Revision: 0
# Processed by: cddbd v1.5.1PL0 Copyright (c) Steve Scherf et al.
# Submitted via: CDex 1.51
#
DISCID=a40a2c0b
DTITLE=Έλλη Πασπαλά - Για τη συνήθεια του έρωτα
DYEAR=1998
DGENRE=Blues
TTITLE0=Λευκό μου γιασεμί
TTITLE1=Το δάκρυ
TTITLE2=Σ'αγαπώ
TTITLE3=Το άλλο μου μισό
TTITLE4=Για τη συνήθεια του έρωτα
TTITLE5=Κρυφή πληγή
TTITLE6=Μες απ'τα δάκρυα που πέφτουν γελώ
TTITLE7=Στο πέλαγο οτυ πουθενά
TTITLE8=Το φόρεμα
TTITLE9=Ενός λεπτού φιλί
TTITLE10=C'est la vie
EXTD=YEAR: 1998
EXTT0=
EXTT1=
EXTT2=
EXTT3=
EXTT4=
EXTT5=
EXTT6=
EXTT7=
EXTT8=
EXTT9=
EXTT10=
PLAYORDER=
